<?xml version="1.0" encoding="UTF-8" standalone="no"?>
<!-- Created with Inkscape (http://www.inkscape.org/) -->

<svg
   width="210mm"
   height="297mm"
   viewBox="0 0 210 297"
   version="1.1"
   id="svg1"
   xml:space="preserve"
   inkscape:version="1.3 (0e150ed, 2023-07-21)"
   sodipodi:docname="tess_edges.svg"
   xmlns:inkscape="http://www.inkscape.org/namespaces/inkscape"
   xmlns:sodipodi="http://sodipodi.sourceforge.net/DTD/sodipodi-0.dtd"
   xmlns="http://www.w3.org/2000/svg"
   xmlns:svg="http://www.w3.org/2000/svg"><sodipodi:namedview
     id="namedview1"
     pagecolor="#ffffff"
     bordercolor="#000000"
     borderopacity="0.25"
     inkscape:showpageshadow="2"
     inkscape:pageopacity="0.0"
     inkscape:pagecheckerboard="0"
     inkscape:deskcolor="#d1d1d1"
     inkscape:document-units="mm"
     inkscape:zoom="0.64633833"
     inkscape:cx="307.11469"
     inkscape:cy="663.73906"
     inkscape:window-width="1312"
     inkscape:window-height="769"
     inkscape:window-x="0"
     inkscape:window-y="25"
     inkscape:window-maximized="0"
     inkscape:current-layer="layer1" /><defs
     id="defs1" /><g
     inkscape:label="Layer 1"
     inkscape:groupmode="layer"
     id="layer1"><path
       style="fill:#000000"
       d="m 24.084831,294.3082 c -0.3407,-0.20943 -1.511473,-0.90475 -2.601719,-1.54515 -1.090246,-0.64041 -2.339073,-1.37899 -2.775172,-1.64131 -0.436098,-0.26231 -1.684925,-1.00204 -2.775171,-1.64384 -1.090246,-0.6418 -2.644909,-1.55849 -3.454806,-2.03708 -0.809897,-0.4786 -2.466505,-1.45755 -3.6813497,-2.17544 -7.104757,-4.19843 -6.922501,-4.08383 -6.886915,-4.33039 0.01867,-0.12933 1.33053,-2.40148 2.915251,-5.04922 1.584722,-2.64774 4.528386,-7.56562 6.5414767,-10.92862 l 3.660164,-6.11455 v -12.86043 -12.86042 l -3.976287,-6.96439 c -4.2817127,-7.49932 -6.1236817,-10.72814 -6.7839617,-11.89172 -0.229791,-0.40495 -0.808175,-1.41855 -1.285298,-2.25243 -0.477123,-0.83389 -0.867497,-1.60184 -0.867497,-1.70655 0,-0.10657 0.211927,-0.30796 0.481407,-0.45747 0.550164,-0.30522 4.925307,-2.78535 9.0901037,-5.15289 1.557494,-0.88538 4.029662,-2.28639 5.493707,-3.11336 1.464045,-0.82697 2.993221,-1.69512 3.398169,-1.92922 0.404949,-0.2341 1.322455,-0.75505 2.038902,-1.15766 0.716447,-0.40261 1.589185,-0.89308 1.939418,-1.08992 l 0.636786,-0.3579 h 13.217789 13.21779 l 1.493823,0.89127 c 6.323045,3.77257 20.446937,12.29994 20.599757,12.4372 0.186378,0.16741 0.481158,0.67469 3.411801,5.87119 0.808102,1.4329 1.65931,2.93659 1.891574,3.34153 0.232264,0.40495 0.653216,1.14405 0.935448,1.64245 1.370887,2.42087 3.463812,6.12687 4.66977,8.26888 0.736573,1.3083 1.509987,2.66574 1.718698,3.01653 l 0.379475,0.63782 v 13.10051 13.1005 l -0.721383,1.21363 c -0.39676,0.66749 -1.475643,2.48793 -2.397517,4.04543 -0.921875,1.55749 -2.041847,3.44348 -2.488828,4.19107 -0.446982,0.7476 -1.143808,1.91997 -1.548503,2.60527 -0.404695,0.68529 -1.296506,2.18898 -1.981802,3.34153 -0.685297,1.15255 -1.83535,3.09029 -2.555675,4.3061 l -1.309682,2.21056 -1.22914,0.72933 c -0.676028,0.40113 -2.605399,1.55154 -4.287493,2.55647 -2.709911,1.61898 -9.515977,5.67881 -15.064587,8.98607 l -1.924998,1.1474 H 37.961321 24.704285 Z m 27.899627,-0.50927 c 0.387847,-0.24032 2.871509,-1.72754 5.519249,-3.30494 2.647741,-1.57739 5.935469,-3.53839 7.306064,-4.35778 1.370595,-0.81938 3.879403,-2.3182 5.575129,-3.33072 2.313065,-1.38112 3.136677,-1.93057 3.297494,-2.19983 0.117896,-0.1974 0.816627,-1.37835 1.552736,-2.62435 1.434326,-2.42785 3.426585,-5.78349 4.472151,-7.53261 0.353786,-0.59185 1.246524,-2.09554 1.983862,-3.34153 1.631308,-2.75668 3.671771,-6.19699 4.261838,-7.18564 l 0.435166,-0.72912 v -12.91627 -12.91627 l -0.551698,-0.96674 c -0.303434,-0.53171 -0.895843,-1.57841 -1.316463,-2.32601 -0.42062,-0.74759 -0.955696,-1.69059 -1.189056,-2.09554 -0.233361,-0.40494 -1.125891,-1.98509 -1.983401,-3.51144 -0.85751,-1.52634 -1.75004,-3.10649 -1.983401,-3.51144 -0.23336,-0.40495 -0.767512,-1.34794 -1.187003,-2.09554 -0.419491,-0.74759 -0.954703,-1.69059 -1.189359,-2.09553 -0.413656,-0.71385 -1.353867,-2.37872 -2.526782,-4.47426 -0.313833,-0.5607 -0.653837,-1.15951 -0.755563,-1.33068 -0.125979,-0.21199 -1.411246,-1.04728 -4.030578,-2.61946 -2.115092,-1.26953 -7.075398,-4.25154 -11.022903,-6.6267 l -7.177282,-4.31847 H 38.402257 25.329856 l -2.121599,1.20254 c -1.166879,0.66139 -2.45292,1.39382 -2.857868,1.62762 -0.404949,0.2338 -1.347941,0.7703 -2.095538,1.19223 -0.747597,0.42193 -1.690589,0.95758 -2.095538,1.19035 -0.404948,0.23277 -1.322454,0.75353 -2.038901,1.15724 -1.19417,0.67291 -3.705705,2.0979 -9.4809137,5.37925 l -2.174849,1.23571 0.236655,0.38882 c 0.13016,0.21386 0.568277,0.97501 0.973593,1.69146 0.957314,1.69217 1.295983,2.28701 2.966626,5.21052 0.765426,1.33945 3.06714,5.36975 5.1149197,8.95623 l 3.723236,6.52087 v 12.84412 12.84411 l -1.224522,2.04348 c -0.673487,1.12392 -3.279681,5.48413 -5.7915427,9.68936 -2.511861,4.20524 -4.680383,7.82429 -4.818936,8.04234 -0.138553,0.21805 -0.368653,0.60034 -0.511333,0.84954 -0.14268,0.2492 -0.400857,0.6904 -0.573728,0.98044 l -0.31431,0.52735 0.925252,0.54062 c 0.508889,0.29734 1.842758,1.08447 2.964154,1.74917 1.121396,0.6647 2.676059,1.5826 3.454806,2.03977 0.7787467,0.45717 2.3588957,1.38964 3.5114417,2.07214 1.152545,0.68251 2.630749,1.55677 3.284897,1.9428 1.531851,0.90398 5.349942,3.16352 7.022883,4.15612 l 1.302632,0.77289 13.283955,3.7e-4 13.283955,3.7e-4 z m -27.140934,-0.54474 c -0.162643,-0.16264 -0.04907,-0.44688 0.64239,-1.6077 0.394848,-0.66288 1.242267,-2.09725 1.883154,-3.18749 0.640886,-1.09025 1.381063,-2.33907 1.644838,-2.77517 0.263775,-0.4361 1.00434,-1.68493 1.6457,-2.77517 0.64136,-1.09025 1.65149,-2.79783 2.244733,-3.79463 0.593243,-0.99679 1.239736,-2.0927 1.43665,-2.43535 0.196915,-0.34265 0.92471,-1.57862 1.617323,-2.74661 l 1.259295,-2.1236 -0.249685,-0.26086 c -0.137326,-0.14348 -0.428088,-0.36502 -0.646137,-0.49233 -0.218049,-0.1273 -1.339445,-0.80784 -2.491991,-1.51231 -1.152546,-0.70446 -2.324914,-1.41828 -2.605263,-1.58626 -0.280349,-0.16798 -1.452718,-0.88138 -2.605263,-1.58535 -1.152546,-0.70397 -2.707209,-1.64767 -3.454806,-2.09711 -0.747597,-0.44944 -2.30226,-1.39175 -3.454806,-2.09401 -1.152545,-0.70226 -2.605263,-1.58452 -3.22826,-1.96058 -0.622998,-0.37606 -1.349573,-0.83056 -1.61461,-1.01001 l -0.481887,-0.32627 0.0288,-12.93229 0.0288,-12.9323 2.20881,-1.29105 c 1.214846,-0.71008 2.871453,-1.67572 3.68135,-2.14587 0.809897,-0.47015 2.084211,-1.21133 2.831808,-1.64707 0.747597,-0.43574 1.65236,-0.96252 2.010584,-1.17064 0.358223,-0.20811 0.957151,-0.55679 1.330949,-0.77484 l 1.359268,-0.79291 c 0.373799,-0.21805 0.985469,-0.57485 1.359268,-0.7929 l 1.359267,-0.79291 1.359268,-0.79291 c 0.373799,-0.21804 0.998212,-0.58249 1.387586,-0.80988 0.389374,-0.22738 1.02653,-0.59367 1.415904,-0.81398 0.389374,-0.2203 0.707952,-0.43699 0.707952,-0.48152 0,-0.0445 -0.910074,-1.78086 -2.022386,-3.8585 -1.112312,-2.07765 -2.31694,-4.33823 -2.676951,-5.02353 -0.360011,-0.6853 -2.075023,-3.90094 -3.811138,-7.14588 -1.736115,-3.24494 -3.156573,-6.0102 -3.156573,-6.14503 v -0.24513 h 12.74669 c 11.293117,0 12.754215,0.0196 12.812673,0.17195 0.03701,0.0965 -0.181422,0.6062 -0.497534,1.16104 -0.309935,0.544 -1.468793,2.59473 -2.57524,4.55717 -1.106448,1.96244 -2.202361,3.8994 -2.435362,4.30435 -0.233001,0.40495 -0.9838,1.73023 -1.668441,2.94508 -0.684641,1.21484 -1.94865,3.45763 -2.80891,4.98398 -0.860259,1.52634 -1.75741,3.10344 -1.993669,3.50465 -0.391894,0.66551 -0.412664,0.74096 -0.236864,0.86039 0.105984,0.072 1.008259,0.61692 2.005055,1.21092 0.996796,0.594 4.921682,2.95371 8.721968,5.24381 3.800286,2.2901 7.584424,4.56676 8.409194,5.05924 0.824771,0.49248 1.551129,0.99173 1.614131,1.10945 0.133741,0.2499 0.161098,25.24053 0.02786,25.44888 -0.08229,0.12868 -1.692462,1.10222 -8.861824,5.35803 -2.024742,1.2019 -3.910726,2.32508 -4.191075,2.49594 -0.280349,0.17086 -2.146486,1.28501 -4.146971,2.47589 -2.000484,1.19089 -3.700785,2.24181 -3.778445,2.33539 -0.117084,0.14107 0.0036,0.42683 0.706637,1.67307 1.289707,2.28624 2.984048,5.31213 3.822617,6.82674 0.413909,0.7476 1.125634,2.02191 1.581612,2.83181 0.455978,0.8099 1.169499,2.08421 1.585603,2.83181 0.416103,0.74759 1.156162,2.07288 1.644575,2.94508 2.05691,3.67318 2.435631,4.3784 2.435631,4.53541 0,0.14404 -1.664671,0.16539 -12.894165,0.16539 -7.091791,0 -12.928147,-0.034 -12.96968,-0.0755 z m 25.28281,-0.51916 c -0.223055,-0.41826 -1.543913,-2.78829 -3.266906,-5.86184 -0.890572,-1.58865 -1.961124,-3.50012 -2.379003,-4.24772 -0.41788,-0.74759 -1.158807,-2.07288 -1.646505,-2.94508 -0.487699,-0.87219 -1.228292,-2.19748 -1.645763,-2.94508 -0.417471,-0.74759 -1.224436,-2.19115 -1.793255,-3.2079 -0.568818,-1.01675 -1.034216,-1.88345 -1.034216,-1.926 0,-0.27163 0.854099,-0.80922 8.098971,-5.09765 0.685297,-0.40564 1.857666,-1.10333 2.605263,-1.5504 2.105349,-1.25904 9.697103,-5.77122 10.110041,-6.00893 l 0.368623,-0.2122 -0.01182,-5.18168 -0.01699,-7.44696 -0.0288,-12.62865 -6.173341,-3.71537 c -3.395338,-2.04345 -8.097555,-4.87243 -10.449371,-6.28662 -3.057773,-1.83869 -4.27603,-2.62861 -4.27603,-2.77259 0,-0.11074 0.14545,-0.44423 0.323222,-0.74109 0.177772,-0.29686 1.026029,-1.78857 1.885015,-3.31492 0.858985,-1.52634 1.879114,-3.33587 2.266952,-4.02116 2.297925,-4.06036 4.987772,-8.82244 5.918295,-10.47769 0.402761,-0.71645 0.898847,-1.58298 1.102415,-1.92563 0.203568,-0.34265 0.479307,-0.83963 0.612755,-1.10441 l 0.242632,-0.4814 H 38.528122 26.117727 l 0.276046,0.4814 c 0.151825,0.26478 1.509755,2.80066 3.017622,5.6353 1.507866,2.83464 4.01088,7.527 5.562253,10.42746 1.551372,2.90047 2.820677,5.37748 2.820677,5.50447 0,0.32928 -0.122481,0.4148 -2.888444,2.0168 -3.507844,2.03169 -4.011178,2.32429 -4.587529,2.66683 -0.280349,0.16662 -0.892019,0.52343 -1.359268,0.79291 -0.467248,0.26947 -1.078918,0.62628 -1.359267,0.7929 -0.280349,0.16663 -0.866533,0.50911 -1.302632,0.76108 -0.436098,0.25197 -1.328118,0.77073 -1.982265,1.1528 -0.654148,0.38207 -2.616591,1.52525 -4.360984,2.5404 l -3.171625,1.84574 -0.02881,12.70246 -0.02881,12.70246 0.25535,0.18471 c 0.140443,0.10158 1.860985,1.15567 3.823428,2.34241 1.962443,1.18674 4.141519,2.50791 4.842391,2.93594 3.192537,1.9497 3.959587,2.41605 6.031751,3.6672 5.747158,3.47006 5.884702,3.56254 5.888203,3.95907 0.0011,0.12189 -0.270853,0.68259 -0.604288,1.246 -0.333435,0.56341 -1.133144,1.9164 -1.77713,3.00664 -0.643987,1.09025 -1.714387,2.89978 -2.378667,4.02117 -0.664281,1.1214 -1.731569,2.93092 -2.371752,4.02117 -0.640183,1.09024 -1.304125,2.21164 -1.475427,2.49199 -0.171302,0.28035 -0.910782,1.52918 -1.64329,2.77517 -0.732507,1.246 -1.529633,2.58403 -1.771391,2.9734 l -0.439559,0.70795 h 12.578965 12.578966 z m 1.281534,-0.33982 c -0.123286,-0.20247 -0.450376,-0.77591 -0.726867,-1.27431 -0.276491,-0.4984 -1.258049,-2.25695 -2.18124,-3.9079 -0.923191,-1.65094 -2.018864,-3.61338 -2.434828,-4.36098 -0.415964,-0.7476 -1.11369,-1.99642 -1.550503,-2.77517 -1.442725,-2.57208 -2.368467,-4.2277 -3.261816,-5.83353 -0.48522,-0.87219 -0.952109,-1.68635 -1.037531,-1.80924 -0.329556,-0.4741 -0.206028,-0.6531 0.892532,-1.29338 0.576231,-0.33584 1.226098,-0.72484 1.444147,-0.86443 0.218049,-0.1396 1.670767,-1.00569 3.228261,-1.92466 1.557494,-0.91897 3.443478,-2.03789 4.191075,-2.48649 0.747598,-0.44861 2.378719,-1.41845 3.624714,-2.15522 1.245996,-0.73676 2.443851,-1.45274 2.6619,-1.59108 1.611394,-1.02229 3.755409,-2.2177 3.920513,-2.1859 0.169272,0.0326 1.641251,2.39871 3.194736,5.13535 0.176827,0.3115 0.654222,1.12706 1.060879,1.81235 1.189724,2.00492 3.38335,5.7241 3.774753,6.39989 0.198454,0.34265 0.69207,1.18369 1.096925,1.86899 2.990741,5.06242 3.06494,5.19733 2.954696,5.3721 -0.06079,0.0964 -0.564157,0.44153 -1.118588,0.767 -0.554431,0.32547 -1.160973,0.68785 -1.347873,0.80529 -0.539897,0.33925 -1.831114,1.11063 -4.870709,2.90976 -1.557495,0.92188 -3.010212,1.78994 -3.228261,1.92902 -0.218049,0.13908 -2.053061,1.23495 -4.077803,2.43526 -2.024743,1.20031 -3.859754,2.29515 -4.077804,2.43299 -0.988235,0.62471 -1.601672,0.96243 -1.748184,0.96243 -0.08743,0 -0.259838,-0.16566 -0.383124,-0.36814 z m 3.230118,-1.68981 c 1.482697,-0.88267 3.817209,-2.27625 5.187804,-3.09683 1.370595,-0.82059 4.64558,-2.77759 7.277746,-4.3489 2.632165,-1.57131 4.785755,-2.88321 4.785755,-2.91533 0,-0.0321 -0.364254,-0.6789 -0.809453,-1.43727 -1.306821,-2.22609 -2.913097,-4.9551 -4.34515,-7.38228 -0.735146,-1.246 -1.830836,-3.10649 -2.434866,-4.13444 -0.604031,-1.02795 -1.781151,-3.03128 -2.615824,-4.45185 -1.138884,-1.93832 -1.563552,-2.57084 -1.701785,-2.53469 -0.101309,0.0265 -1.834557,1.03107 -3.851661,2.23239 -2.017105,1.20132 -4.610455,2.74519 -5.763,3.43083 -1.152546,0.68564 -3.267907,1.94528 -4.700801,2.79921 -1.432895,0.85393 -3.201108,1.9063 -3.929361,2.3386 l -1.324098,0.786 0.286721,0.50325 c 0.256055,0.44941 2.522578,4.49752 4.404113,7.86594 0.382795,0.6853 1.060263,1.89631 1.505484,2.69115 0.86544,1.54503 1.540987,2.75407 3.765276,6.73877 0.77377,1.38617 1.442952,2.52031 1.487071,2.52031 0.04412,0 1.293332,-0.72219 2.776029,-1.60486 z m -31.852243,1.33504 c -0.436098,-0.26566 -1.430063,-0.85541 -2.20881,-1.31056 -0.778747,-0.45515 -1.772711,-1.04316 -2.20881,-1.3067 -0.436098,-0.26353 -1.684925,-1.00362 -2.775171,-1.64464 -1.090246,-0.64103 -2.899772,-1.70922 -4.021168,-2.37375 -1.121395,-0.66453 -2.9309207,-1.73498 -4.0211667,-2.37878 -3.438049,-2.03017 -3.843171,-2.27807 -3.916371,-2.39652 -0.0393,-0.0636 0.285502,-0.71092 0.721777,-1.43853 1.544372,-2.57566 8.0004097,-13.37163 9.7477777,-16.30052 1.904636,-3.19249 1.893019,-3.17996 2.565238,-2.7659 1.042371,0.64206 4.645633,2.83704 5.323798,3.24308 0.888109,0.53173 3.483289,2.10701 6.626431,4.02225 1.152545,0.7023 2.605263,1.58665 3.22826,1.96524 4.018783,2.44217 3.963747,2.40515 3.995224,2.68738 0.0197,0.17663 -0.247593,0.74181 -0.746208,1.57784 -0.427295,0.71644 -1.377948,2.32208 -2.112561,3.56807 -0.734613,1.246 -1.475042,2.49483 -1.645398,2.77518 -0.170355,0.28034 -0.758324,1.27431 -1.306596,2.20881 -0.548273,0.93449 -1.285506,2.18332 -1.638296,2.77517 -0.352789,0.59185 -1.091813,1.84067 -1.642275,2.77517 -2.933399,4.97991 -2.830799,4.81747 -3.036466,4.80739 -0.07497,-0.004 -0.49311,-0.22403 -0.929209,-0.48968 z m 3.22888,-3.80799 c 0.830099,-1.40174 1.671402,-2.82897 1.869562,-3.17162 0.198159,-0.34265 0.692802,-1.1837 1.099206,-1.86899 0.969338,-1.63455 2.440259,-4.12173 3.315975,-5.60698 0.38569,-0.65415 1.27619,-2.15605 1.97889,-3.33755 l 1.277635,-2.1482 -0.252595,-0.17389 c -0.233229,-0.16056 -3.596001,-2.21395 -7.98666,-4.87685 -0.996796,-0.60455 -2.755349,-1.67468 -3.907895,-2.37807 -1.152546,-0.70339 -2.324914,-1.41632 -2.605263,-1.5843 -0.280349,-0.16798 -1.43645,-0.87058 -2.569113,-1.56133 -1.507055,-0.91908 -2.088507,-1.2199 -2.167957,-1.12161 -0.05971,0.0739 -1.907306,3.14169 -4.105762,6.81738 -2.1984567,3.67569 -4.8799767,8.1589 -5.9589337,9.9627 -1.078958,1.8038 -1.92369,3.31543 -1.877184,3.35919 0.04651,0.0438 0.798171,0.49988 1.670368,1.01361 0.872197,0.51372 2.146511,1.26549 2.831808,1.67059 0.685298,0.4051 1.5263447,0.89919 1.8689937,1.09798 0.342648,0.19878 3.146138,1.85688 6.229977,3.68465 3.083838,1.82777 5.87362,3.47009 6.199514,3.6496 0.325894,0.1795 0.623379,0.37628 0.661078,0.43728 0.0377,0.061 0.259916,-0.20991 0.493814,-0.60203 0.233899,-0.39211 1.104443,-1.85981 1.934542,-3.26156 z m 46.598591,-9.26001 c -0.167792,-0.29592 -0.441994,-0.76742 -0.609338,-1.04777 -0.167343,-0.28035 -0.524405,-0.89202 -0.793471,-1.35926 -0.269066,-0.46725 -0.601039,-1.02795 -0.737718,-1.246 -0.13668,-0.21805 -0.874551,-1.46688 -1.639715,-2.77517 -0.765164,-1.3083 -1.5291,-2.6081 -1.697636,-2.88844 -0.168537,-0.28035 -0.526575,-0.89202 -0.79564,-1.35927 -0.269066,-0.46725 -0.601201,-1.02795 -0.738078,-1.246 -0.136877,-0.21805 -0.681826,-1.13555 -1.210997,-2.0389 -1.666569,-2.84499 -2.60939,-4.45021 -3.056201,-5.20337 l -0.432543,-0.72912 6.88e-4,-13.09011 6.89e-4,-13.0901 1.283125,-2.15217 c 0.705719,-1.1837 1.885045,-3.17163 2.620725,-4.41762 0.73568,-1.246 1.627826,-2.74969 1.982547,-3.34154 0.596361,-0.99502 1.99498,-3.35438 4.230281,-7.13615 1.734275,-2.93412 2.068261,-3.45354 2.242127,-3.48703 0.122979,-0.0237 0.588957,0.70052 1.566507,2.43461 0.765301,1.35758 1.583241,2.79964 1.817643,3.20459 0.234402,0.40495 1.330546,2.34191 2.435874,4.30435 1.105328,1.96244 2.200283,3.8994 2.433233,4.30435 0.678519,1.1795 1.415426,2.47952 1.958326,3.4548 0.277439,0.4984 0.817323,1.46041 1.199744,2.13779 l 0.69531,1.23162 v 12.84373 12.84373 l -0.860311,1.44296 c -1.184041,1.98594 -1.370836,2.30059 -3.277482,5.52077 -0.922181,1.55749 -2.042405,3.44348 -2.489386,4.19107 -0.446981,0.7476 -1.143682,1.91997 -1.548224,2.60527 -0.404542,0.68529 -1.337308,2.26544 -2.072815,3.51144 -1.760243,2.98197 -1.847301,3.11499 -2.03866,3.11499 -0.08994,0 -0.300811,-0.24212 -0.468604,-0.53805 z m 1.038335,-0.84954 c 0.568988,-0.96928 0.975301,-1.65488 3.071182,-5.18221 0.684824,-1.15254 1.848154,-3.11499 2.585178,-4.36098 0.737024,-1.246 1.900678,-3.20844 2.585897,-4.36099 0.685219,-1.15254 1.5336,-2.57977 1.885291,-3.17162 0.35169,-0.59185 0.802251,-1.36264 1.001246,-1.71287 l 0.361809,-0.63679 v -12.43528 -12.43528 l -0.414033,-0.74716 c -0.397103,-0.7166 -2.323051,-4.1307 -4.287353,-7.60013 -0.511453,-0.90334 -1.606073,-2.8403 -2.432488,-4.30434 -0.826416,-1.46405 -1.693996,-2.99322 -1.927957,-3.39817 -0.23396,-0.40495 -0.76896,-1.34794 -1.188888,-2.09554 -1.270932,-2.26264 -1.57391,-2.77532 -1.638092,-2.77189 -0.03378,0.002 -0.668925,1.034 -1.411433,2.29376 -0.742508,1.25977 -1.818189,3.08056 -2.390401,4.04621 -0.572213,0.96564 -1.869925,3.15746 -2.883804,4.87071 -1.013879,1.71324 -1.983251,3.34436 -2.15416,3.62471 -0.501255,0.82223 -2.901599,4.90456 -3.042671,5.17476 -0.09451,0.18102 -0.129178,3.70263 -0.129178,13.12347 v 12.87605 l 0.978937,1.65857 c 0.538416,0.91221 1.3717,2.32121 1.851743,3.13111 0.981345,1.65566 2.174793,3.68486 2.864645,4.87071 0.253694,0.4361 0.675293,1.14971 0.936886,1.58581 0.261594,0.4361 0.999111,1.68493 1.638928,2.77517 0.639817,1.09025 1.329296,2.26262 1.532175,2.60527 0.673623,1.1377 1.23618,2.10241 1.637189,2.80756 0.218049,0.38343 0.401928,0.69866 0.408619,0.70051 0.0067,0.002 0.259021,-0.41716 0.560733,-0.93113 z M 55.003631,229.30246 c -2.714487,-1.63533 -7.136355,-4.29777 -9.826373,-5.91653 -2.690018,-1.61876 -4.890942,-3.01143 -4.890942,-3.09482 0,-0.0834 0.120857,-0.36458 0.268572,-0.62487 0.271512,-0.47844 0.70154,-1.24087 3.014141,-5.34397 0.702271,-1.24599 1.467842,-2.59677 1.701269,-3.00172 0.377984,-0.65572 1.376373,-2.42289 3.711703,-6.56979 0.403468,-0.71645 0.924238,-1.63395 1.157266,-2.0389 0.233028,-0.40495 0.782872,-1.37343 1.221876,-2.15217 0.439003,-0.77875 0.8759,-1.43174 0.970883,-1.45109 0.09498,-0.0194 2.8139,1.55536 6.042039,3.49934 3.22814,1.94399 6.182808,3.71837 6.56593,3.94308 3.583815,2.10194 7.62893,4.61957 7.62893,4.74815 0,0.1402 -0.971573,1.84278 -2.436151,4.2691 -0.263239,0.4361 -1.003975,1.68492 -1.646082,2.77517 -0.642106,1.09024 -1.532325,2.59393 -1.978266,3.34153 -0.44594,0.7476 -1.142287,1.91997 -1.547437,2.60526 -0.977372,1.6532 -3.260852,5.50745 -4.060088,6.85298 -0.351555,0.59185 -0.711787,1.0888 -0.800515,1.10433 -0.08873,0.0155 -2.382268,-1.30975 -5.096755,-2.94508 z m 5.752449,1.35934 c 0.901894,-1.54713 1.881676,-3.2052 3.430398,-5.8052 0.705081,-1.1837 1.688399,-2.84031 2.185149,-3.68135 0.496751,-0.84105 1.227826,-2.07713 1.624611,-2.74686 0.396786,-0.66972 1.045202,-1.76563 1.440926,-2.43535 0.395724,-0.66972 1.177762,-1.98705 1.737862,-2.92738 l 1.018364,-1.70971 -9.826298,-5.90786 c -5.404464,-3.24932 -9.869268,-5.90776 -9.921786,-5.90764 -0.05252,1.3e-4 -0.458794,0.65003 -0.902833,1.44423 -0.778836,1.39301 -3.963957,7.03464 -5.419699,9.5996 -0.388939,0.6853 -1.412132,2.49483 -2.273763,4.02117 -0.861631,1.52635 -1.931564,3.41233 -2.37763,4.19108 -0.446066,0.77874 -0.805985,1.42207 -0.799821,1.4296 0.0062,0.008 1.769761,1.07092 3.919104,2.36307 6.79432,4.08464 13.388501,8.05438 14.375966,8.65442 0.524259,0.31857 0.98907,0.57922 1.032912,0.57922 0.04384,0 0.384285,-0.52247 0.756538,-1.16104 z m -44.773198,1.41417 c -0.06589,-0.0458 -2.557942,-4.36491 -5.537898,-9.59809 -2.9799577,-5.23318 -5.5561737,-9.74425 -5.7249257,-10.0246 -0.624036,-1.03672 -0.865903,-1.53351 -0.8272,-1.69909 0.02184,-0.0935 1.962428,-1.25931 4.31241,-2.5908 2.3499827,-1.3315 4.6040157,-2.61188 5.0089647,-2.84531 0.404949,-0.23342 1.347941,-0.76961 2.095538,-1.19154 0.747597,-0.42193 1.690589,-0.95758 2.095538,-1.19035 0.404948,-0.23277 1.322454,-0.75301 2.038901,-1.15609 0.716448,-0.40308 2.127309,-1.2034 3.135248,-1.77849 1.127631,-0.64337 1.92691,-1.03127 2.077734,-1.00835 0.236747,0.036 1.893917,3.01024 5.322165,9.55212 0.489719,0.9345 2.091617,3.94188 3.559773,6.68307 1.468156,2.74119 2.669376,5.04472 2.669378,5.11896 3e-6,0.0742 -0.496978,0.42384 -1.104401,0.77689 -0.607422,0.35305 -1.461212,0.84856 -1.897311,1.10113 -0.436098,0.25257 -1.022282,0.59555 -1.302631,0.76217 -0.280349,0.16662 -0.89202,0.52343 -1.359268,0.79291 -0.467248,0.26948 -1.078919,0.62628 -1.359268,0.79291 -0.280349,0.16662 -0.866533,0.5087 -1.302631,0.76018 -0.436099,0.25148 -1.379091,0.80028 -2.095538,1.21956 -0.716448,0.41928 -1.633953,0.95479 -2.038902,1.19002 -0.404948,0.23523 -1.34794,0.78486 -2.095538,1.22141 -4.145526,2.42068 -5.487027,3.19789 -5.517,3.19634 -0.01834,-9.6e-4 -0.08725,-0.0392 -0.153138,-0.085 z m 5.840047,-3.64889 c 3.021539,-1.75879 6.079891,-3.54307 6.796339,-3.96506 1.378303,-0.81184 2.496708,-1.46177 5.363528,-3.11687 0.971195,-0.56069 1.767342,-1.05093 1.769218,-1.08941 0.0019,-0.0385 -0.904283,-1.77155 -2.013685,-3.85126 -5.32648,-9.98514 -8.982347,-16.82138 -9.066902,-16.95454 -0.06992,-0.11012 -0.70111,0.19857 -2.518669,1.23175 -1.333952,0.75827 -3.776139,2.14349 -5.427083,3.07827 -1.650944,0.93477 -3.333038,1.88979 -3.737987,2.12227 -0.404948,0.23247 -1.14405,0.65347 -1.642448,0.93556 -0.498398,0.28208 -2.0275747,1.14778 -3.3981697,1.92377 -1.370595,0.77598 -2.759981,1.55902 -3.087524,1.74008 -0.327543,0.18105 -0.57399,0.3858 -0.547661,0.45498 0.04555,0.11968 10.9564067,19.27627 11.5607717,20.29767 0.158662,0.26814 0.326296,0.46572 0.37252,0.43906 0.04622,-0.0266 2.556213,-1.48747 5.577752,-3.24627 z"
       id="path1"
       sodipodi:nodetypes="ssssssssscccsssssssssscccssssssscccsssssscssscccsssssssssscccssssssssssscccsssssscsssscccssssscsssssscccssssssssscssssssssscccssssssscsssssssscsssssssssssssssssssssssssssssssssssssccccssssssssscccssssssssssscccsssssssssssscccssssssssssssssssssssssssssssssssssssssssscsssssssssssssssssssssssssscsssssscssssssssssssssssssssssssssscccssssssssssscccssssssssssssscccssssscsssssscssssssscsssssssssscscsssssssssssssscsssssscsssscsssssssssssssssssssssssccsssssssssssssscs" /><path
       style="fill:#000000"
       d="m 25.490423,192.15324 c -0.3407,-0.20943 -1.511473,-0.90475 -2.601719,-1.54515 -1.090246,-0.64041 -2.339073,-1.37899 -2.775172,-1.64131 -0.436098,-0.26231 -1.684925,-1.00204 -2.775171,-1.64384 -1.090246,-0.6418 -2.644909,-1.55849 -3.454806,-2.03708 -0.809897,-0.4786 -2.466505,-1.45755 -3.68135,-2.17544 -7.104757,-4.19843 -6.922501,-4.08383 -6.886915,-4.33039 0.01867,-0.12933 1.33053,-2.40148 2.915251,-5.04922 1.584722,-2.64774 4.528386,-7.56562 6.541477,-10.92862 l 3.660164,-6.11455 V 143.82721 130.96679 L 12.455895,124.0024 C 8.174182,116.50308 6.332213,113.27426 5.671933,112.11068 5.442142,111.70573 4.863758,110.69213 4.386635,109.85825 3.909512,109.02436 3.519138,108.25641 3.519138,108.1517 c 0,-0.10657 0.211927,-0.30796 0.481407,-0.45747 0.550164,-0.30522 4.925307,-2.78535 9.090104,-5.15289 1.557494,-0.88538 4.029662,-2.28639 5.493707,-3.113361 1.464045,-0.82697 2.993221,-1.69512 3.398169,-1.92922 0.404949,-0.234105 1.322455,-0.755055 2.038902,-1.157665 0.716447,-0.40261 1.589185,-0.89308 1.939418,-1.08992 l 0.636786,-0.3579 H 39.81542 53.03321 l 1.493823,0.89127 c 6.323045,3.772575 20.446937,12.299946 20.599757,12.437206 0.186378,0.16741 0.481158,0.67469 3.411801,5.87119 0.808102,1.4329 1.65931,2.93659 1.891574,3.34153 0.232264,0.40495 0.653216,1.14405 0.935448,1.64245 1.370887,2.42087 3.463812,6.12687 4.66977,8.26888 0.736573,1.3083 1.509983,2.66574 1.718693,3.01653 l 0.37948,0.63782 v 13.10051 13.1005 l -0.72138,1.21363 c -0.39676,0.66749 -1.475646,2.48793 -2.39752,4.04543 -0.921875,1.55749 -2.041847,3.44348 -2.488828,4.19107 -0.446982,0.7476 -1.143808,1.91997 -1.548503,2.60527 -0.404695,0.68529 -1.296506,2.18898 -1.981802,3.34153 -0.685297,1.15255 -1.83535,3.09029 -2.555675,4.3061 l -1.309682,2.21056 -1.22914,0.72933 c -0.676028,0.40113 -2.605399,1.55154 -4.287493,2.55647 -2.709911,1.61898 -9.515977,5.67881 -15.064587,8.98607 l -1.924998,1.1474 H 39.366913 26.109877 Z m 27.899627,-0.50927 c 0.387847,-0.24032 2.871509,-1.72754 5.519249,-3.30494 2.647741,-1.57739 5.935469,-3.53839 7.306064,-4.35778 1.370595,-0.81938 3.879403,-2.3182 5.575129,-3.33072 2.313065,-1.38112 3.136677,-1.93057 3.297494,-2.19983 0.117896,-0.1974 0.816627,-1.37835 1.552736,-2.62435 1.434326,-2.42785 3.426585,-5.78349 4.472151,-7.53261 0.353786,-0.59185 1.246524,-2.09554 1.983862,-3.34153 1.631308,-2.75668 3.671771,-6.19699 4.261841,-7.18564 l 0.43516,-0.72912 v -12.91627 -12.91627 l -0.5517,-0.96674 c -0.30343,-0.53171 -0.89584,-1.57841 -1.316458,-2.32601 -0.42062,-0.74759 -0.955696,-1.69059 -1.189056,-2.09554 -0.233361,-0.40494 -1.125891,-1.98509 -1.983401,-3.51144 -0.85751,-1.52634 -1.75004,-3.10649 -1.983401,-3.51144 -0.23336,-0.40495 -0.767512,-1.34794 -1.187003,-2.09554 -0.419491,-0.74759 -0.954703,-1.69059 -1.189359,-2.09553 -0.413656,-0.71385 -1.353867,-2.37872 -2.526782,-4.47426 -0.313833,-0.5607 -0.653837,-1.15951 -0.755563,-1.33068 -0.125979,-0.21199 -1.411246,-1.04728 -4.030578,-2.61946 -2.115092,-1.26953 -7.075398,-4.25154 -11.022903,-6.626701 L 52.88025,95.233094 H 39.807849 26.735448 l -2.121599,1.20254 c -1.166879,0.66139 -2.45292,1.393825 -2.857868,1.627625 -0.404949,0.2338 -1.347941,0.7703 -2.095538,1.19223 -0.747597,0.42193 -1.690589,0.957581 -2.095538,1.190351 -0.404948,0.23277 -1.322454,0.75353 -2.038901,1.15724 -1.19417,0.67291 -3.705705,2.0979 -9.480914,5.37925 l -2.174849,1.23571 0.236655,0.38882 c 0.13016,0.21386 0.568277,0.97501 0.973593,1.69146 0.957314,1.69217 1.295983,2.28701 2.966626,5.21052 0.765426,1.33945 3.06714,5.36975 5.11492,8.95623 l 3.723236,6.52087 v 12.84412 12.84411 l -1.224522,2.04348 c -0.673487,1.12392 -3.279681,5.48413 -5.791543,9.68936 -2.511861,4.20524 -4.680383,7.82429 -4.818936,8.04234 -0.138553,0.21805 -0.368653,0.60034 -0.511333,0.84954 -0.14268,0.2492 -0.400857,0.6904 -0.573728,0.98044 l -0.31431,0.52735 0.925252,0.54062 c 0.508889,0.29734 1.842758,1.08447 2.964154,1.74917 1.121396,0.6647 2.676059,1.5826 3.454806,2.03977 0.778747,0.45717 2.358896,1.38964 3.511442,2.07214 1.152545,0.68251 2.630749,1.55677 3.284897,1.9428 1.531851,0.90398 5.349942,3.16352 7.022883,4.15612 l 1.302632,0.77289 13.283955,3.7e-4 13.283955,3.7e-4 z m -27.140934,-0.54474 c -0.162643,-0.16264 -0.04907,-0.44688 0.64239,-1.6077 0.394848,-0.66288 1.242267,-2.09725 1.883154,-3.18749 0.640886,-1.09025 1.381063,-2.33907 1.644838,-2.77517 0.263775,-0.4361 1.00434,-1.68493 1.6457,-2.77517 0.64136,-1.09025 1.65149,-2.79783 2.244733,-3.79463 0.593243,-0.99679 1.239736,-2.0927 1.43665,-2.43535 0.196915,-0.34265 0.92471,-1.57862 1.617323,-2.74661 l 1.259295,-2.1236 -0.249685,-0.26086 c -0.137326,-0.14348 -0.428088,-0.36502 -0.646137,-0.49233 -0.218049,-0.1273 -1.339445,-0.80784 -2.491991,-1.51231 -1.152546,-0.70446 -2.324914,-1.41828 -2.605263,-1.58626 -0.280349,-0.16798 -1.452718,-0.88138 -2.605263,-1.58535 -1.152546,-0.70397 -2.707209,-1.64767 -3.454806,-2.09711 -0.747597,-0.44944 -2.30226,-1.39175 -3.454806,-2.09401 -1.152545,-0.70226 -2.605263,-1.58452 -3.22826,-1.96058 -0.622998,-0.37606 -1.349573,-0.83056 -1.61461,-1.01001 l -0.481887,-0.32627 0.0288,-12.93229 0.0288,-12.9323 2.20881,-1.29105 c 1.214846,-0.71008 2.871453,-1.67572 3.68135,-2.14587 0.809897,-0.47015 2.084211,-1.21133 2.831808,-1.64707 0.747597,-0.43574 1.65236,-0.96252 2.010584,-1.17064 0.358223,-0.20811 0.957151,-0.55679 1.330949,-0.77484 0.373799,-0.21805 0.985469,-0.57486 1.359268,-0.79291 0.373799,-0.21805 0.985469,-0.57485 1.359268,-0.7929 0.373798,-0.21805 0.985469,-0.57486 1.359267,-0.79291 0.373799,-0.21805 0.98547,-0.57486 1.359268,-0.79291 0.373799,-0.21804 0.998212,-0.58249 1.387586,-0.80988 0.389374,-0.22738 1.02653,-0.59367 1.415904,-0.81398 0.389374,-0.2203 0.707952,-0.43699 0.707952,-0.48152 0,-0.0445 -0.910074,-1.78086 -2.022386,-3.8585 -1.112312,-2.07765 -2.31694,-4.33823 -2.676951,-5.02353 -0.360011,-0.6853 -2.075023,-3.90094 -3.811138,-7.14588 -1.736115,-3.244941 -3.156573,-6.010206 -3.156573,-6.145036 v -0.24513 h 12.74669 c 11.293117,0 12.754215,0.0196 12.812673,0.17195 0.03701,0.0965 -0.181422,0.6062 -0.497534,1.161045 -0.309935,0.544 -1.468793,2.594731 -2.57524,4.557171 -1.106448,1.96244 -2.202361,3.8994 -2.435362,4.30435 -0.233001,0.40495 -0.9838,1.73023 -1.668441,2.94508 -0.684641,1.21484 -1.94865,3.45763 -2.80891,4.98398 -0.860259,1.52634 -1.75741,3.10344 -1.993669,3.50465 -0.391894,0.66551 -0.412664,0.74096 -0.236864,0.86039 0.105984,0.072 1.008259,0.61692 2.005055,1.21092 0.996796,0.594 4.921682,2.95371 8.721968,5.24381 3.800286,2.2901 7.584424,4.56676 8.409194,5.05924 0.824771,0.49248 1.551129,0.99173 1.614131,1.10945 0.133741,0.2499 0.161098,25.24053 0.02786,25.44888 -0.08229,0.12868 -1.692462,1.10222 -8.861824,5.35803 -2.024742,1.2019 -3.910726,2.32508 -4.191075,2.49594 -0.280349,0.17086 -2.146486,1.28501 -4.146971,2.47589 -2.000484,1.19089 -3.700785,2.24181 -3.778445,2.33539 -0.117084,0.14107 0.0036,0.42683 0.706637,1.67307 1.289707,2.28624 2.984048,5.31213 3.822617,6.82674 0.413909,0.7476 1.125634,2.02191 1.581612,2.83181 0.455978,0.8099 1.169499,2.08421 1.585603,2.83181 0.416103,0.74759 1.156162,2.07288 1.644575,2.94508 2.05691,3.67318 2.435631,4.3784 2.435631,4.53541 0,0.14404 -1.664671,0.16539 -12.894165,0.16539 -7.091791,0 -12.928147,-0.034 -12.96968,-0.0755 z m 25.28281,-0.51916 c -0.223055,-0.41826 -1.543913,-2.78829 -3.266906,-5.86184 -0.890572,-1.58865 -1.961124,-3.50012 -2.379003,-4.24772 -0.41788,-0.74759 -1.158807,-2.07288 -1.646505,-2.94508 -0.487699,-0.87219 -1.228292,-2.19748 -1.645763,-2.94508 -0.417471,-0.74759 -1.224436,-2.19115 -1.793255,-3.2079 -0.568818,-1.01675 -1.034216,-1.88345 -1.034216,-1.926 0,-0.27163 0.854099,-0.80922 8.098971,-5.09765 0.685297,-0.40564 1.857666,-1.10333 2.605263,-1.5504 2.105349,-1.25904 9.697103,-5.77122 10.110041,-6.00893 l 0.368623,-0.2122 -0.02881,-12.62864 -0.0288,-12.62865 -6.173341,-3.71537 c -3.395338,-2.04345 -8.097555,-4.87243 -10.449371,-6.28662 -3.057773,-1.83869 -4.27603,-2.62861 -4.27603,-2.77259 0,-0.11074 0.14545,-0.44423 0.323222,-0.74109 0.177772,-0.29686 1.026029,-1.78857 1.885015,-3.31492 0.858985,-1.52634 1.879114,-3.33587 2.266952,-4.02116 2.297925,-4.06036 4.987772,-8.82244 5.918295,-10.477691 0.402761,-0.71645 0.898847,-1.58298 1.102415,-1.92563 0.203568,-0.34265 0.479307,-0.839635 0.612755,-1.104415 l 0.242632,-0.4814 H 39.933714 27.523319 l 0.276046,0.4814 c 0.151825,0.26478 1.509755,2.800665 3.017622,5.635306 1.507866,2.83464 4.01088,7.527 5.562253,10.42746 1.551372,2.90047 2.820677,5.37748 2.820677,5.50447 0,0.32928 -0.122481,0.4148 -2.888444,2.0168 -3.507844,2.03169 -4.011178,2.32429 -4.587529,2.66683 -0.280349,0.16662 -0.892019,0.52343 -1.359268,0.79291 -0.467248,0.26947 -1.078918,0.62628 -1.359267,0.7929 -0.280349,0.16663 -0.866533,0.50911 -1.302632,0.76108 -0.436098,0.25197 -1.328118,0.77073 -1.982265,1.1528 -0.654148,0.38207 -2.616591,1.52525 -4.360984,2.5404 l -3.171625,1.84574 -0.02881,12.70246 -0.02881,12.70246 0.25535,0.18471 c 0.140443,0.10158 1.860985,1.15567 3.823428,2.34241 1.962443,1.18674 4.141519,2.50791 4.842391,2.93594 3.192537,1.9497 3.959587,2.41605 6.031751,3.6672 5.747158,3.47006 5.884702,3.56254 5.888203,3.95907 0.0011,0.12189 -0.270853,0.68259 -0.604288,1.246 -0.333435,0.56341 -1.133144,1.9164 -1.77713,3.00664 -0.643987,1.09025 -1.714387,2.89978 -2.378667,4.02117 -0.664281,1.1214 -1.731569,2.93092 -2.371752,4.02117 -0.640183,1.09024 -1.304125,2.21164 -1.475427,2.49199 -0.171302,0.28035 -0.910782,1.52918 -1.64329,2.77517 -0.732507,1.246 -1.529633,2.58403 -1.771391,2.9734 l -0.439559,0.70795 h 12.578965 12.578966 z m 1.281534,-0.33982 c -0.123286,-0.20247 -0.450376,-0.77591 -0.726867,-1.27431 -0.276491,-0.4984 -1.258049,-2.25695 -2.18124,-3.9079 -0.923191,-1.65094 -2.018864,-3.61338 -2.434828,-4.36098 -0.415964,-0.7476 -1.11369,-1.99642 -1.550503,-2.77517 -1.442725,-2.57208 -2.368467,-4.2277 -3.261816,-5.83353 -0.48522,-0.87219 -0.952109,-1.68635 -1.037531,-1.80924 -0.329556,-0.4741 -0.206028,-0.6531 0.892532,-1.29338 0.576231,-0.33584 1.226098,-0.72484 1.444147,-0.86443 0.218049,-0.1396 1.670767,-1.00569 3.228261,-1.92466 1.557494,-0.91897 3.443478,-2.03789 4.191075,-2.48649 0.747598,-0.44861 2.378719,-1.41845 3.624714,-2.15522 1.245996,-0.73676 2.443851,-1.45274 2.6619,-1.59108 1.611394,-1.02229 3.755409,-2.2177 3.920513,-2.1859 0.169272,0.0326 1.641251,2.39871 3.194736,5.13535 0.176827,0.3115 0.654222,1.12706 1.060879,1.81235 1.189724,2.00492 3.38335,5.7241 3.774753,6.39989 0.198454,0.34265 0.69207,1.18369 1.096925,1.86899 2.990741,5.06242 3.06494,5.19733 2.954696,5.3721 -0.06079,0.0964 -0.564157,0.44153 -1.118588,0.767 -0.554431,0.32547 -1.160973,0.68785 -1.347873,0.80529 -0.539897,0.33925 -1.831114,1.11063 -4.870709,2.90976 -1.557495,0.92188 -3.010212,1.78994 -3.228261,1.92902 -0.218049,0.13908 -2.053061,1.23495 -4.077803,2.43526 -2.024743,1.20031 -3.859754,2.29515 -4.077804,2.43299 -0.988235,0.62471 -1.601672,0.96243 -1.748184,0.96243 -0.08743,0 -0.259838,-0.16566 -0.383124,-0.36814 z m 3.230118,-1.68981 c 1.482697,-0.88267 3.817209,-2.27625 5.187804,-3.09683 1.370595,-0.82059 4.64558,-2.77759 7.277746,-4.3489 2.632165,-1.57131 4.785755,-2.88321 4.785755,-2.91533 0,-0.0321 -0.364254,-0.6789 -0.809453,-1.43727 -1.306821,-2.22609 -2.913097,-4.9551 -4.34515,-7.38228 -0.735146,-1.246 -1.830836,-3.10649 -2.434866,-4.13444 -0.604031,-1.02795 -1.781151,-3.03128 -2.615824,-4.45185 -1.138884,-1.93832 -1.563552,-2.57084 -1.701785,-2.53469 -0.101309,0.0265 -1.834557,1.03107 -3.851661,2.23239 -2.017105,1.20132 -4.610455,2.74519 -5.763,3.43083 -1.152546,0.68564 -3.267907,1.94528 -4.700801,2.79921 -1.432895,0.85393 -3.201108,1.9063 -3.929361,2.3386 l -1.324098,0.786 0.286721,0.50325 c 0.256055,0.44941 2.522578,4.49752 4.404113,7.86594 0.382795,0.6853 1.060263,1.89631 1.505484,2.69115 0.86544,1.54503 1.540987,2.75407 3.765276,6.73877 0.77377,1.38617 1.442952,2.52031 1.487071,2.52031 0.04412,0 1.293332,-0.72219 2.776029,-1.60486 z m -31.852243,1.33504 c -0.436098,-0.26566 -1.430063,-0.85541 -2.20881,-1.31056 -0.778747,-0.45515 -1.772711,-1.04316 -2.20881,-1.3067 -0.436098,-0.26353 -1.684925,-1.00362 -2.775171,-1.64464 -1.090246,-0.64103 -2.899772,-1.70922 -4.021168,-2.37375 -1.121395,-0.66453 -2.930921,-1.73498 -4.021167,-2.37878 -3.438049,-2.03017 -3.843171,-2.27807 -3.916371,-2.39652 -0.0393,-0.0636 0.285502,-0.71092 0.721777,-1.43853 1.544372,-2.57566 8.00041,-13.37163 9.747778,-16.30052 1.904636,-3.19249 1.893019,-3.17996 2.565238,-2.7659 1.042371,0.64206 4.645633,2.83704 5.323798,3.24308 0.888109,0.53173 3.483289,2.10701 6.626431,4.02225 1.152545,0.7023 2.605263,1.58665 3.22826,1.96524 4.018783,2.44217 3.963747,2.40515 3.995224,2.68738 0.0197,0.17663 -0.247593,0.74181 -0.746208,1.57784 -0.427295,0.71644 -1.377948,2.32208 -2.112561,3.56807 -0.734613,1.246 -1.475042,2.49483 -1.645398,2.77518 -0.170355,0.28034 -0.758324,1.27431 -1.306596,2.20881 -0.548273,0.93449 -1.285506,2.18332 -1.638296,2.77517 -0.352789,0.59185 -1.091813,1.84067 -1.642275,2.77517 -2.933399,4.97991 -2.830799,4.81747 -3.036466,4.80739 -0.07497,-0.004 -0.49311,-0.22403 -0.929209,-0.48968 z m 3.22888,-3.80799 c 0.830099,-1.40174 1.671402,-2.82897 1.869562,-3.17162 0.198159,-0.34265 0.692802,-1.1837 1.099206,-1.86899 0.969338,-1.63455 2.440259,-4.12173 3.315975,-5.60698 0.38569,-0.65415 1.27619,-2.15605 1.97889,-3.33755 l 1.277635,-2.1482 -0.252595,-0.17389 c -0.233229,-0.16056 -3.596001,-2.21395 -7.98666,-4.87685 -0.996796,-0.60455 -2.755349,-1.67468 -3.907895,-2.37807 -1.152546,-0.70339 -2.324914,-1.41632 -2.605263,-1.5843 -0.280349,-0.16798 -1.43645,-0.87058 -2.569113,-1.56133 -1.507055,-0.91908 -2.088507,-1.2199 -2.167957,-1.12161 -0.05971,0.0739 -1.907306,3.14169 -4.105762,6.81738 -2.198457,3.67569 -4.879977,8.1589 -5.958934,9.9627 -1.078958,1.8038 -1.92369,3.31543 -1.877184,3.35919 0.04651,0.0438 0.798171,0.49988 1.670368,1.01361 0.872197,0.51372 2.146511,1.26549 2.831808,1.67059 0.685298,0.4051 1.526345,0.89919 1.868994,1.09798 0.342648,0.19878 3.146138,1.85688 6.229977,3.68465 3.083838,1.82777 5.87362,3.47009 6.199514,3.6496 0.325894,0.1795 0.623379,0.37628 0.661078,0.43728 0.0377,0.061 0.259916,-0.20991 0.493814,-0.60203 0.233899,-0.39211 1.104443,-1.85981 1.934542,-3.26156 z m 46.598591,-9.26001 c -0.167792,-0.29592 -0.441994,-0.76742 -0.609338,-1.04777 -0.167343,-0.28035 -0.524405,-0.89202 -0.793471,-1.35926 -0.269066,-0.46725 -0.601039,-1.02795 -0.737718,-1.246 -0.13668,-0.21805 -0.874551,-1.46688 -1.639715,-2.77517 -0.765164,-1.3083 -1.5291,-2.6081 -1.697636,-2.88844 -0.168537,-0.28035 -0.526575,-0.89202 -0.79564,-1.35927 -0.269066,-0.46725 -0.601201,-1.02795 -0.738078,-1.246 -0.136877,-0.21805 -0.681826,-1.13555 -1.210997,-2.0389 -1.666569,-2.84499 -2.60939,-4.45021 -3.056201,-5.20337 l -0.432543,-0.72912 6.88e-4,-13.09011 6.89e-4,-13.0901 1.283125,-2.15217 c 0.705719,-1.1837 1.885045,-3.17163 2.620725,-4.41762 0.73568,-1.246 1.627826,-2.74969 1.982547,-3.34154 0.596361,-0.99502 1.99498,-3.35438 4.230281,-7.13615 1.734275,-2.93412 2.068261,-3.45354 2.242127,-3.48703 0.122979,-0.0237 0.588957,0.70052 1.566507,2.43461 0.765301,1.35758 1.583241,2.79964 1.817643,3.20459 0.234402,0.40495 1.330546,2.34191 2.435874,4.30435 1.105328,1.96244 2.200283,3.8994 2.433233,4.30435 0.678519,1.1795 1.415426,2.47952 1.958326,3.4548 0.277439,0.4984 0.817323,1.46041 1.199744,2.13779 l 0.695308,1.23162 v 12.84373 12.84373 l -0.860309,1.44296 c -1.184041,1.98594 -1.370836,2.30059 -3.277482,5.52077 -0.922181,1.55749 -2.042405,3.44348 -2.489386,4.19107 -0.446981,0.7476 -1.143682,1.91997 -1.548224,2.60527 -0.404542,0.68529 -1.337308,2.26544 -2.072815,3.51144 -1.760243,2.98197 -1.847301,3.11499 -2.03866,3.11499 -0.08994,0 -0.300811,-0.24212 -0.468604,-0.53805 z m 1.038335,-0.84954 c 0.568988,-0.96928 0.975301,-1.65488 3.071182,-5.18221 0.684824,-1.15254 1.848154,-3.11499 2.585178,-4.36098 0.737024,-1.246 1.900678,-3.20844 2.585897,-4.36099 0.685219,-1.15254 1.5336,-2.57977 1.885291,-3.17162 0.35169,-0.59185 0.802251,-1.36264 1.001247,-1.71287 l 0.36181,-0.63679 V 144.1072 131.67192 l -0.41404,-0.74716 c -0.397098,-0.7166 -2.323046,-4.1307 -4.287348,-7.60013 -0.511453,-0.90334 -1.606073,-2.8403 -2.432488,-4.30434 -0.826416,-1.46405 -1.693996,-2.99322 -1.927957,-3.39817 -0.23396,-0.40495 -0.76896,-1.34794 -1.188888,-2.09554 -1.270932,-2.26264 -1.57391,-2.77532 -1.638092,-2.77189 -0.03378,0.002 -0.668925,1.034 -1.411433,2.29376 -0.742508,1.25977 -1.818189,3.08056 -2.390401,4.04621 -0.572213,0.96564 -1.869925,3.15746 -2.883804,4.87071 -1.013879,1.71324 -1.983251,3.34436 -2.15416,3.62471 -0.501255,0.82223 -2.901599,4.90456 -3.042671,5.17476 -0.09451,0.18102 -0.129178,3.70263 -0.129178,13.12347 v 12.87605 l 0.978937,1.65857 c 0.538416,0.91221 1.3717,2.32121 1.851743,3.13111 0.981345,1.65566 2.174793,3.68486 2.864645,4.87071 0.253694,0.4361 0.675293,1.14971 0.936886,1.58581 0.261594,0.4361 0.999111,1.68493 1.638928,2.77517 0.639817,1.09025 1.329296,2.26262 1.532175,2.60527 0.673623,1.1377 1.23618,2.10241 1.637189,2.80756 0.218049,0.38343 0.401928,0.69866 0.408619,0.70051 0.0067,0.002 0.259021,-0.41716 0.560733,-0.93113 z M 56.409223,127.1475 c -2.714487,-1.63533 -7.136355,-4.29777 -9.826373,-5.91653 -2.690018,-1.61876 -4.890942,-3.01143 -4.890942,-3.09482 0,-0.0834 0.120857,-0.36458 0.268572,-0.62487 0.271512,-0.47844 0.70154,-1.24087 3.014141,-5.34397 0.702271,-1.24599 1.467842,-2.59677 1.701269,-3.00172 0.377984,-0.65572 1.376373,-2.42289 3.711703,-6.56979 0.403468,-0.71645 0.924238,-1.63395 1.157266,-2.0389 0.233028,-0.40495 0.782872,-1.373431 1.221876,-2.152171 0.439003,-0.77875 0.8759,-1.431745 0.970883,-1.451095 0.09498,-0.0194 2.8139,1.555365 6.042039,3.499346 3.22814,1.94399 6.182808,3.71837 6.56593,3.94308 3.583815,2.10194 7.62893,4.61957 7.62893,4.74815 0,0.1402 -0.971573,1.84278 -2.436151,4.2691 -0.263239,0.4361 -1.003975,1.68492 -1.646082,2.77517 -0.642106,1.09024 -1.532325,2.59393 -1.978266,3.34153 -0.44594,0.7476 -1.142287,1.91997 -1.547437,2.60526 -0.977372,1.6532 -3.260852,5.50745 -4.060088,6.85298 -0.351555,0.59185 -0.711787,1.0888 -0.800515,1.10433 -0.08873,0.0155 -2.382268,-1.30975 -5.096755,-2.94508 z m 5.752449,1.35934 c 0.901894,-1.54713 1.881676,-3.2052 3.430398,-5.8052 0.705081,-1.1837 1.688399,-2.84031 2.185149,-3.68135 0.496751,-0.84105 1.227826,-2.07713 1.624611,-2.74686 0.396786,-0.66972 1.045202,-1.76563 1.440926,-2.43535 0.395724,-0.66972 1.177762,-1.98705 1.737862,-2.92738 l 1.018364,-1.70971 -9.826298,-5.90786 c -5.404464,-3.24932 -9.869268,-5.907761 -9.921786,-5.907641 -0.05252,1.3e-4 -0.458794,0.65003 -0.902833,1.44423 -0.778836,1.393011 -3.963957,7.034641 -5.419699,9.599601 -0.388939,0.6853 -1.412132,2.49483 -2.273763,4.02117 -0.861631,1.52635 -1.931564,3.41233 -2.37763,4.19108 -0.446066,0.77874 -0.805985,1.42207 -0.799821,1.4296 0.0062,0.008 1.769761,1.07092 3.919104,2.36307 6.79432,4.08464 13.388501,8.05438 14.375966,8.65442 0.524259,0.31857 0.98907,0.57922 1.032912,0.57922 0.04384,0 0.384285,-0.52247 0.756538,-1.16104 z m -44.773198,1.41417 c -0.06589,-0.0458 -2.557942,-4.36491 -5.537898,-9.59809 -2.979958,-5.23318 -5.556174,-9.74425 -5.724926,-10.0246 -0.624036,-1.03672 -0.865903,-1.53351 -0.8272,-1.69909 0.02184,-0.0935 1.962428,-1.25931 4.31241,-2.5908 2.349983,-1.3315 4.604016,-2.61188 5.008965,-2.84531 0.404949,-0.23342 1.347941,-0.76961 2.095538,-1.19154 0.747597,-0.42193 1.690589,-0.95758 2.095538,-1.19035 0.404948,-0.23277 1.322454,-0.75301 2.038901,-1.156091 0.716448,-0.40308 2.127309,-1.2034 3.135248,-1.77849 1.127631,-0.643375 1.92691,-1.031275 2.077734,-1.008355 0.236747,0.036 1.893917,3.010245 5.322165,9.552126 0.489719,0.9345 2.091617,3.94188 3.559773,6.68307 1.468156,2.74119 2.669376,5.04472 2.669378,5.11896 3e-6,0.0742 -0.496978,0.42384 -1.104401,0.77689 -0.607422,0.35305 -1.461212,0.84856 -1.897311,1.10113 -0.436098,0.25257 -1.022282,0.59555 -1.302631,0.76217 -0.280349,0.16662 -0.89202,0.52343 -1.359268,0.79291 -0.467248,0.26948 -1.078919,0.62628 -1.359268,0.79291 -0.280349,0.16662 -0.866533,0.5087 -1.302631,0.76018 -0.436099,0.25148 -1.379091,0.80028 -2.095538,1.21956 -0.716448,0.41928 -1.633953,0.95479 -2.038902,1.19002 -0.404948,0.23523 -1.34794,0.78486 -2.095538,1.22141 -4.145526,2.42068 -5.487027,3.19789 -5.517,3.19634 -0.01834,-9.6e-4 -0.08725,-0.0392 -0.153138,-0.085 z m 5.840047,-3.64889 c 3.021539,-1.75879 6.079891,-3.54307 6.796339,-3.96506 1.378303,-0.81184 2.496708,-1.46177 5.363528,-3.11687 0.971195,-0.56069 1.767342,-1.05093 1.769218,-1.08941 0.0019,-0.0385 -0.904283,-1.77155 -2.013685,-3.85126 -5.32648,-9.98514 -8.982347,-16.821381 -9.066902,-16.954546 -0.06992,-0.11012 -0.70111,0.198575 -2.518669,1.231755 -1.333952,0.75827 -3.776139,2.143491 -5.427083,3.078271 -1.650944,0.93477 -3.333038,1.88979 -3.737987,2.12227 -0.404948,0.23247 -1.14405,0.65347 -1.642448,0.93556 -0.498398,0.28208 -2.027575,1.14778 -3.39817,1.92377 -1.370595,0.77598 -2.759981,1.55902 -3.087524,1.74008 -0.327543,0.18105 -0.57399,0.3858 -0.547661,0.45498 0.04555,0.11968 10.956407,19.27627 11.560772,20.29767 0.158662,0.26814 0.326296,0.46572 0.37252,0.43906 0.04622,-0.0266 2.556213,-1.48747 5.577752,-3.24627 z"
       id="path1-4" /></g></svg>
